<?xml version="1.0" encoding="us-ascii" standalone="no"?><svg xmlns="http://www.w3.org/2000/svg" xmlns:xlink="http://www.w3.org/1999/xlink" contentStyleType="text/css" height="1163px" preserveAspectRatio="none" style="width:1333px;height:1163px;background:#FFFFFF;" version="1.1" viewBox="0 0 1333 1163" width="1333px" zoomAndPan="magnify"><defs><style type="text/css">@import url('https://fonts.googleapis.com/css?family=Roboto:400,100,100italic,300,300italic,400italic,500,500italic,700,700italic,900,900italic');</style></defs><g><text fill="#000000" font-family="Roboto" font-size="14" font-weight="bold" lengthAdjust="spacing" textLength="172" x="579.25" y="32.9883">Repo Compliance Pipeline</text><ellipse cx="663" cy="57.4063" fill="#222222" rx="10" ry="10" style="stroke:#222222;stroke-width:1.0;"/><rect fill="#F1F1F1" height="34.0625" rx="12.5" ry="12.5" style="stroke:#181818;stroke-width:0.5;" width="256" x="535" y="87.4063"/><text fill="#000000" font-family="Roboto" font-size="12" lengthAdjust="spacing" textLength="236" x="545" y="108.5391">User invokes /repo-audit [path] [--scheduled]</text><path d="M770,144.125 L770,175.5938 L750,179.5938 L770,183.5938 L770,215.0625 A0,0 0 0 0 770,215.0625 L963,215.0625 A0,0 0 0 0 963,215.0625 L963,154.125 L953,144.125 L770,144.125 A0,0 0 0 0 770,144.125 " fill="#FEFFDD" style="stroke:#181818;stroke-width:0.5;"/><path d="M953,144.125 L953,154.125 L963,154.125 L953,144.125 " fill="#FEFFDD" style="stroke:#181818;stroke-width:0.5;"/><text fill="#000000" font-family="Roboto" font-size="13" lengthAdjust="spacing" textLength="170" x="776" y="161.1855">Exclusions list repos skipped</text><text fill="#000000" font-family="Roboto" font-size="13" lengthAdjust="spacing" textLength="170" x="776" y="176.4199">entirely in scheduled sweeps.</text><text fill="#000000" font-family="Roboto" font-size="13" lengthAdjust="spacing" textLength="172" x="776" y="191.6543">Overrides suppress approved</text><text fill="#000000" font-family="Roboto" font-size="13" lengthAdjust="spacing" textLength="142" x="776" y="206.8887">exceptions per check ID.</text><rect fill="#F1F1F1" height="76.25" rx="12.5" ry="12.5" style="stroke:#181818;stroke-width:0.5;" width="174" x="576" y="141.4688"/><text fill="#000000" font-family="Roboto" font-size="12" lengthAdjust="spacing" textLength="99" x="586" y="162.6016">Coordinator loads</text><text fill="#000000" font-family="Roboto" font-size="12" lengthAdjust="spacing" textLength="139" x="586" y="176.6641">standards-manifest.yaml</text><text fill="#000000" font-family="Roboto" font-size="12" lengthAdjust="spacing" textLength="136" x="586" y="190.7266">compliance-overrides.md</text><text fill="#000000" font-family="Roboto" font-size="12" lengthAdjust="spacing" textLength="154" x="586" y="204.7891">compliance-exclusions.yaml</text><rect fill="#555555" height="6" rx="2.5" ry="2.5" style="stroke:#555555;stroke-width:1.0;" width="1311.5" x="11" y="237.7188"/><rect fill="#F1F1F1" height="90.3125" rx="12.5" ry="12.5" style="stroke:#181818;stroke-width:0.5;" width="155" x="23" y="277.7813"/><text fill="#000000" font-family="Roboto" font-size="12" lengthAdjust="spacing" textLength="135" x="33" y="298.9141">repo-foundations-auditor</text><text fill="#000000" font-family="Roboto" font-size="12" lengthAdjust="spacing" textLength="81" x="33" y="312.9766">- - - - - - - - - - - - - -</text><text fill="#000000" font-family="Roboto" font-size="12" lengthAdjust="spacing" textLength="90" x="33" y="327.0391">FOUND-001..011</text><text fill="#000000" font-family="Roboto" font-size="12" lengthAdjust="spacing" textLength="129" x="33" y="341.1016">File presence, .gitignore,</text><text fill="#000000" font-family="Roboto" font-size="12" lengthAdjust="spacing" textLength="132" x="33" y="355.1641">pyproject.toml metadata</text><rect fill="#F1F1F1" height="90.3125" rx="12.5" ry="12.5" style="stroke:#181818;stroke-width:0.5;" width="156" x="188" y="277.7813"/><text fill="#000000" font-family="Roboto" font-size="12" lengthAdjust="spacing" textLength="133" x="198" y="298.9141">python-toolchain-auditor</text><text fill="#000000" font-family="Roboto" font-size="12" lengthAdjust="spacing" textLength="81" x="198" y="312.9766">- - - - - - - - - - - - - -</text><text fill="#000000" font-family="Roboto" font-size="12" lengthAdjust="spacing" textLength="84" x="198" y="327.0391">TOOL-001..012</text><text fill="#000000" font-family="Roboto" font-size="12" lengthAdjust="spacing" textLength="124" x="198" y="341.1016">Dev deps, Ruff rule set,</text><text fill="#000000" font-family="Roboto" font-size="12" lengthAdjust="spacing" textLength="136" x="198" y="355.1641">BasedPyright config, qlty</text><rect fill="#F1F1F1" height="90.3125" rx="12.5" ry="12.5" style="stroke:#181818;stroke-width:0.5;" width="159" x="364.5" y="277.7813"/><text fill="#000000" font-family="Roboto" font-size="12" lengthAdjust="spacing" textLength="103" x="374.5" y="298.9141">pre-commit-auditor</text><text fill="#000000" font-family="Roboto" font-size="12" lengthAdjust="spacing" textLength="81" x="374.5" y="312.9766">- - - - - - - - - - - - - -</text><text fill="#000000" font-family="Roboto" font-size="12" lengthAdjust="spacing" textLength="66" x="374.5" y="327.0391">PC-001..010</text><text fill="#000000" font-family="Roboto" font-size="12" lengthAdjust="spacing" textLength="139" x="374.5" y="341.1016">Hook inventory, SHA pins,</text><text fill="#000000" font-family="Roboto" font-size="12" lengthAdjust="spacing" textLength="95" x="374.5" y="355.1641">no-em-dash hook</text><rect fill="#F1F1F1" height="104.375" rx="12.5" ry="12.5" style="stroke:#181818;stroke-width:0.5;" width="175" x="551.5" y="270.75"/><text fill="#000000" font-family="Roboto" font-size="12" lengthAdjust="spacing" textLength="132" x="561.5" y="291.8828">ossf-compliance-auditor</text><text fill="#000000" font-family="Roboto" font-size="12" lengthAdjust="spacing" textLength="81" x="561.5" y="305.9453">- - - - - - - - - - - - - -</text><text fill="#000000" font-family="Roboto" font-size="12" lengthAdjust="spacing" textLength="80" x="561.5" y="320.0078">OSSF-001..005</text><text fill="#000000" font-family="Roboto" font-size="12" lengthAdjust="spacing" textLength="112" x="561.5" y="334.0703">SCORECARD checks</text><text fill="#000000" font-family="Roboto" font-size="12" lengthAdjust="spacing" textLength="132" x="561.5" y="348.1328">CI-017 branch protection</text><text fill="#000000" font-family="Roboto" font-size="12" lengthAdjust="spacing" textLength="155" x="561.5" y="362.1953">Live Scorecard + Badge APIs</text><rect fill="#F1F1F1" height="118.4375" rx="12.5" ry="12.5" style="stroke:#181818;stroke-width:0.5;" width="158" x="754.5" y="263.7188"/><text fill="#000000" font-family="Roboto" font-size="12" lengthAdjust="spacing" textLength="108" x="764.5" y="284.8516">claude-docs-auditor</text><text fill="#000000" font-family="Roboto" font-size="12" lengthAdjust="spacing" textLength="81" x="764.5" y="298.9141">- - - - - - - - - - - - - -</text><text fill="#000000" font-family="Roboto" font-size="12" lengthAdjust="spacing" textLength="96" x="764.5" y="312.9766">CLAUDE-001..007</text><text fill="#000000" font-family="Roboto" font-size="12" lengthAdjust="spacing" textLength="119" x="764.5" y="327.0391">CLAUDE.md sections,</text><text fill="#000000" font-family="Roboto" font-size="12" lengthAdjust="spacing" textLength="120" x="764.5" y="341.1016">RAD cross-references,</text><text fill="#000000" font-family="Roboto" font-size="12" lengthAdjust="spacing" textLength="138" x="764.5" y="355.1641">em-dash scan (delegates</text><text fill="#000000" font-family="Roboto" font-size="12" lengthAdjust="spacing" textLength="118" x="764.5" y="369.2266">to writing-style-editor)</text><rect fill="#F1F1F1" height="104.375" rx="12.5" ry="12.5" style="stroke:#181818;stroke-width:0.5;" width="164" x="940.5" y="270.75"/><text fill="#000000" font-family="Roboto" font-size="12" lengthAdjust="spacing" textLength="74" x="950.5" y="291.8828">ci-compliance</text><text fill="#000000" font-family="Roboto" font-size="12" lengthAdjust="spacing" textLength="81" x="950.5" y="305.9453">- - - - - - - - - - - - - -</text><text fill="#000000" font-family="Roboto" font-size="12" lengthAdjust="spacing" textLength="62" x="950.5" y="320.0078">CI-001..017</text><text fill="#000000" font-family="Roboto" font-size="12" lengthAdjust="spacing" textLength="107" x="950.5" y="334.0703">Workflow inventory,</text><text fill="#000000" font-family="Roboto" font-size="12" lengthAdjust="spacing" textLength="108" x="950.5" y="348.1328">gate jobs, SHA pins,</text><text fill="#000000" font-family="Roboto" font-size="12" lengthAdjust="spacing" textLength="144" x="950.5" y="362.1953">branch protection contexts</text><rect fill="#F1F1F1" height="104.375" rx="12.5" ry="12.5" style="stroke:#181818;stroke-width:0.5;" width="196" x="1114.5" y="270.75"/><text fill="#000000" font-family="Roboto" font-size="12" lengthAdjust="spacing" textLength="147" x="1124.5" y="291.8828">general-compliance-auditor</text><text fill="#000000" font-family="Roboto" font-size="12" lengthAdjust="spacing" textLength="81" x="1124.5" y="305.9453">- - - - - - - - - - - - - -</text><text fill="#000000" font-family="Roboto" font-size="12" lengthAdjust="spacing" textLength="131" x="1124.5" y="320.0078">unclassified candidates</text><text fill="#000000" font-family="Roboto" font-size="12" lengthAdjust="spacing" textLength="148" x="1124.5" y="334.0703">Receives covered check IDs</text><text fill="#000000" font-family="Roboto" font-size="12" lengthAdjust="spacing" textLength="130" x="1124.5" y="348.1328">as negative filter; audits</text><text fill="#000000" font-family="Roboto" font-size="12" lengthAdjust="spacing" textLength="176" x="1124.5" y="362.1953">gaps domain agents cannot see</text><rect fill="#555555" height="6" rx="2.5" ry="2.5" style="stroke:#555555;stroke-width:1.0;" width="1311.5" x="11" y="402.1563"/><rect fill="#F1F1F1" height="62.1875" rx="12.5" ry="12.5" style="stroke:#181818;stroke-width:0.5;" width="310" x="508" y="428.1563"/><text fill="#000000" font-family="Roboto" font-size="12" lengthAdjust="spacing" textLength="134" x="518" y="449.2891">Merge all FINDING blocks</text><text fill="#000000" font-family="Roboto" font-size="12" lengthAdjust="spacing" textLength="145" x="518" y="463.3516">Apply override suppression</text><text fill="#000000" font-family="Roboto" font-size="12" lengthAdjust="spacing" textLength="290" x="518" y="477.4141">Sort: critical -&gt; important -&gt; suggested -&gt; unclassified</text><polygon fill="#FEFEFE" points="610.5,510.3438,715.5,510.3438,727.5,522.3438,715.5,534.3438,610.5,534.3438,598.5,522.3438,610.5,510.3438" style="stroke:#181818;stroke-width:0.5;"/><text fill="#000000" font-family="Roboto" font-size="11" lengthAdjust="spacing" textLength="105" x="610.5" y="526.1035">--scheduled mode?</text><text fill="#000000" font-family="Roboto" font-size="11" lengthAdjust="spacing" textLength="18" x="580.5" y="519.6582">yes</text><text fill="#000000" font-family="Roboto" font-size="11" lengthAdjust="spacing" textLength="76" x="727.5" y="519.6582">no, interactive</text><rect fill="#F1F1F1" height="48.125" rx="12.5" ry="12.5" style="stroke:#181818;stroke-width:0.5;" width="218" x="354" y="544.3438"/><text fill="#000000" font-family="Roboto" font-size="12" lengthAdjust="spacing" textLength="172" x="364" y="565.4766">Write per-repo compliance report</text><text fill="#000000" font-family="Roboto" font-size="12" lengthAdjust="spacing" textLength="198" x="364" y="579.5391">docs/compliance-reports/&lt;repo&gt;.md</text><path d="M583,612.4688 L583,636.3203 L563,640.3203 L583,644.3203 L583,668.1719 A0,0 0 0 0 583,668.1719 L768,668.1719 A0,0 0 0 0 768,668.1719 L768,622.4688 L758,612.4688 L583,612.4688 A0,0 0 0 0 583,612.4688 " fill="#FEFFDD" style="stroke:#181818;stroke-width:0.5;"/><path d="M758,612.4688 L758,622.4688 L768,622.4688 L758,612.4688 " fill="#FEFFDD" style="stroke:#181818;stroke-width:0.5;"/><text fill="#000000" font-family="Roboto" font-size="13" lengthAdjust="spacing" textLength="164" x="589" y="629.5293">Scheduled sweeps produce</text><text fill="#000000" font-family="Roboto" font-size="13" lengthAdjust="spacing" textLength="107" x="589" y="644.7637">report-only output.</text><text fill="#000000" font-family="Roboto" font-size="13" lengthAdjust="spacing" textLength="163" x="589" y="659.998">No code changes are made.</text><rect fill="#F1F1F1" height="34.0625" rx="12.5" ry="12.5" style="stroke:#181818;stroke-width:0.5;" width="200" x="363" y="623.2891"/><text fill="#000000" font-family="Roboto" font-size="12" lengthAdjust="spacing" textLength="180" x="373" y="644.4219">Emit summary to session output</text><rect fill="#F1F1F1" height="48.125" rx="12.5" ry="12.5" style="stroke:#181818;stroke-width:0.5;" width="150" x="788" y="544.3438"/><text fill="#000000" font-family="Roboto" font-size="12" lengthAdjust="spacing" textLength="130" x="798" y="565.4766">Present findings to user</text><text fill="#000000" font-family="Roboto" font-size="12" lengthAdjust="spacing" textLength="112" x="798" y="579.5391">(grouped by severity)</text><rect fill="#F1F1F1" height="48.125" rx="12.5" ry="12.5" style="stroke:#181818;stroke-width:0.5;" width="150" x="788" y="684.4688"/><text fill="#000000" font-family="Roboto" font-size="12" lengthAdjust="spacing" textLength="115" x="798" y="705.6016">User selects findings</text><text fill="#000000" font-family="Roboto" font-size="12" lengthAdjust="spacing" textLength="130" x="798" y="719.6641">to remediate or dismiss</text><rect fill="#F1F1F1" height="48.125" rx="12.5" ry="12.5" style="stroke:#181818;stroke-width:0.5;" width="148" x="789" y="760.0938"/><text fill="#000000" font-family="Roboto" font-size="12" lengthAdjust="spacing" textLength="128" x="799" y="781.2266">Domain agents execute</text><text fill="#000000" font-family="Roboto" font-size="12" lengthAdjust="spacing" textLength="117" x="799" y="795.2891">approved fixes in-repo</text><polygon fill="#FEFEFE" points="863,612.4688,875,624.4688,863,636.4688,851,624.4688,863,612.4688" style="stroke:#181818;stroke-width:0.5;"/><polygon fill="#FEFEFE" points="817,828.2188,909,828.2188,921,840.2188,909,852.2188,817,852.2188,805,840.2188,817,828.2188" style="stroke:#181818;stroke-width:0.5;"/><text fill="#000000" font-family="Roboto" font-size="11" lengthAdjust="spacing" textLength="92" x="817" y="843.9785">findings remain?</text><text fill="#000000" font-family="Roboto" font-size="11" lengthAdjust="spacing" textLength="18" x="921" y="837.5332">yes</text><rect fill="#F1F1F1" height="48.125" rx="12.5" ry="12.5" style="stroke:#181818;stroke-width:0.5;" width="138" x="794" y="893.7949"/><text fill="#000000" font-family="Roboto" font-size="12" lengthAdjust="spacing" textLength="118" x="804" y="914.9277">Commit changes and</text><text fill="#000000" font-family="Roboto" font-size="12" lengthAdjust="spacing" textLength="92" x="804" y="928.9902">open pull request</text><polygon fill="#FEFEFE" points="663,947.9199,675,959.9199,663,971.9199,651,959.9199,663,947.9199" style="stroke:#181818;stroke-width:0.5;"/><rect fill="#F1F1F1" height="118.4375" rx="12.5" ry="12.5" style="stroke:#181818;stroke-width:0.5;" width="256" x="535" y="991.9199"/><text fill="#000000" font-family="Roboto" font-size="12" lengthAdjust="spacing" textLength="134" x="545" y="1013.0527">compliance-retrospective</text><text fill="#000000" font-family="Roboto" font-size="12" lengthAdjust="spacing" textLength="81" x="545" y="1027.1152">- - - - - - - - - - - - - -</text><text fill="#000000" font-family="Roboto" font-size="12" lengthAdjust="spacing" textLength="228" x="545" y="1041.1777">Pattern detection across session findings</text><text fill="#000000" font-family="Roboto" font-size="12" lengthAdjust="spacing" textLength="222" x="545" y="1055.2402">Group unclassified candidates by pattern</text><text fill="#000000" font-family="Roboto" font-size="12" lengthAdjust="spacing" textLength="184" x="545" y="1069.3027">Flag checks appearing in 3+ repos</text><text fill="#000000" font-family="Roboto" font-size="12" lengthAdjust="spacing" textLength="141" x="545" y="1083.3652">Write lessons-learned doc</text><text fill="#000000" font-family="Roboto" font-size="12" lengthAdjust="spacing" textLength="236" x="545" y="1097.4277">Propose manifest entries as YAML snippets</text><ellipse cx="663" cy="1141.3574" fill="none" rx="11" ry="11" style="stroke:#222222;stroke-width:1.0;"/><ellipse cx="663" cy="1141.3574" fill="#222222" rx="6" ry="6" style="stroke:#222222;stroke-width:1.0;"/><line style="stroke:#181818;stroke-width:1.0;" x1="663" x2="663" y1="67.4063" y2="87.4063"/><polygon fill="#181818" points="659,77.4063,663,87.4063,667,77.4063,663,81.4063" style="stroke:#181818;stroke-width:1.0;"/><line style="stroke:#181818;stroke-width:1.0;" x1="663" x2="663" y1="121.4688" y2="141.4688"/><polygon fill="#181818" points="659,131.4688,663,141.4688,667,131.4688,663,135.4688" style="stroke:#181818;stroke-width:1.0;"/><line style="stroke:#181818;stroke-width:1.0;" x1="100.5" x2="100.5" y1="243.7188" y2="277.7813"/><polygon fill="#181818" points="96.5,267.7813,100.5,277.7813,104.5,267.7813,100.5,271.7813" style="stroke:#181818;stroke-width:1.0;"/><line style="stroke:#181818;stroke-width:1.0;" x1="266" x2="266" y1="243.7188" y2="277.7813"/><polygon fill="#181818" points="262,267.7813,266,277.7813,270,267.7813,266,271.7813" style="stroke:#181818;stroke-width:1.0;"/><line style="stroke:#181818;stroke-width:1.0;" x1="444" x2="444" y1="243.7188" y2="277.7813"/><polygon fill="#181818" points="440,267.7813,444,277.7813,448,267.7813,444,271.7813" style="stroke:#181818;stroke-width:1.0;"/><line style="stroke:#181818;stroke-width:1.0;" x1="639" x2="639" y1="243.7188" y2="270.75"/><polygon fill="#181818" points="635,260.75,639,270.75,643,260.75,639,264.75" style="stroke:#181818;stroke-width:1.0;"/><line style="stroke:#181818;stroke-width:1.0;" x1="833.5" x2="833.5" y1="243.7188" y2="263.7188"/><polygon fill="#181818" points="829.5,253.7188,833.5,263.7188,837.5,253.7188,833.5,257.7188" style="stroke:#181818;stroke-width:1.0;"/><line style="stroke:#181818;stroke-width:1.0;" x1="1022.5" x2="1022.5" y1="243.7188" y2="270.75"/><polygon fill="#181818" points="1018.5,260.75,1022.5,270.75,1026.5,260.75,1022.5,264.75" style="stroke:#181818;stroke-width:1.0;"/><line style="stroke:#181818;stroke-width:1.0;" x1="1212.5" x2="1212.5" y1="243.7188" y2="270.75"/><polygon fill="#181818" points="1208.5,260.75,1212.5,270.75,1216.5,260.75,1212.5,264.75" style="stroke:#181818;stroke-width:1.0;"/><line style="stroke:#181818;stroke-width:1.0;" x1="100.5" x2="100.5" y1="368.0938" y2="402.1563"/><polygon fill="#181818" points="96.5,392.1563,100.5,402.1563,104.5,392.1563,100.5,396.1563" style="stroke:#181818;stroke-width:1.0;"/><line style="stroke:#181818;stroke-width:1.0;" x1="266" x2="266" y1="368.0938" y2="402.1563"/><polygon fill="#181818" points="262,392.1563,266,402.1563,270,392.1563,266,396.1563" style="stroke:#181818;stroke-width:1.0;"/><line style="stroke:#181818;stroke-width:1.0;" x1="444" x2="444" y1="368.0938" y2="402.1563"/><polygon fill="#181818" points="440,392.1563,444,402.1563,448,392.1563,444,396.1563" style="stroke:#181818;stroke-width:1.0;"/><line style="stroke:#181818;stroke-width:1.0;" x1="639" x2="639" y1="375.125" y2="402.1563"/><polygon fill="#181818" points="635,392.1563,639,402.1563,643,392.1563,639,396.1563" style="stroke:#181818;stroke-width:1.0;"/><line style="stroke:#181818;stroke-width:1.0;" x1="833.5" x2="833.5" y1="382.1563" y2="402.1563"/><polygon fill="#181818" points="829.5,392.1563,833.5,402.1563,837.5,392.1563,833.5,396.1563" style="stroke:#181818;stroke-width:1.0;"/><line style="stroke:#181818;stroke-width:1.0;" x1="1022.5" x2="1022.5" y1="375.125" y2="402.1563"/><polygon fill="#181818" points="1018.5,392.1563,1022.5,402.1563,1026.5,392.1563,1022.5,396.1563" style="stroke:#181818;stroke-width:1.0;"/><line style="stroke:#181818;stroke-width:1.0;" x1="1212.5" x2="1212.5" y1="375.125" y2="402.1563"/><polygon fill="#181818" points="1208.5,392.1563,1212.5,402.1563,1216.5,392.1563,1212.5,396.1563" style="stroke:#181818;stroke-width:1.0;"/><line style="stroke:#181818;stroke-width:1.0;" x1="663" x2="663" y1="217.7188" y2="237.7188"/><polygon fill="#181818" points="659,227.7188,663,237.7188,667,227.7188,663,231.7188" style="stroke:#181818;stroke-width:1.0;"/><line style="stroke:#181818;stroke-width:1.0;" x1="663" x2="663" y1="408.1563" y2="428.1563"/><polygon fill="#181818" points="659,418.1563,663,428.1563,667,418.1563,663,422.1563" style="stroke:#181818;stroke-width:1.0;"/><line style="stroke:#181818;stroke-width:1.0;" x1="463" x2="463" y1="592.4688" y2="623.2891"/><polygon fill="#181818" points="459,613.2891,463,623.2891,467,613.2891,463,617.2891" style="stroke:#181818;stroke-width:1.0;"/><line style="stroke:#181818;stroke-width:1.0;" x1="863" x2="863" y1="732.5938" y2="760.0938"/><polygon fill="#181818" points="859,750.0938,863,760.0938,867,750.0938,863,754.0938" style="stroke:#181818;stroke-width:1.0;"/><line style="stroke:#181818;stroke-width:1.0;" x1="863" x2="863" y1="636.4688" y2="684.4688"/><polygon fill="#181818" points="859,674.4688,863,684.4688,867,674.4688,863,678.4688" style="stroke:#181818;stroke-width:1.0;"/><line style="stroke:#181818;stroke-width:1.0;" x1="921" x2="950" y1="840.2188" y2="840.2188"/><polygon fill="#181818" points="946,752.5938,950,742.5938,954,752.5938,950,748.5938" style="stroke:#181818;stroke-width:1.0;"/><line style="stroke:#181818;stroke-width:1.0;" x1="950" x2="950" y1="624.4688" y2="840.2188"/><line style="stroke:#181818;stroke-width:1.0;" x1="950" x2="875" y1="624.4688" y2="624.4688"/><polygon fill="#181818" points="885,620.4688,875,624.4688,885,628.4688,881,624.4688" style="stroke:#181818;stroke-width:1.0;"/><line style="stroke:#181818;stroke-width:1.0;" x1="863" x2="863" y1="808.2188" y2="828.2188"/><polygon fill="#181818" points="859,818.2188,863,828.2188,867,818.2188,863,822.2188" style="stroke:#181818;stroke-width:1.0;"/><line style="stroke:#181818;stroke-width:1.0;" x1="863" x2="863" y1="592.4688" y2="612.4688"/><polygon fill="#181818" points="859,602.4688,863,612.4688,867,602.4688,863,606.4688" style="stroke:#181818;stroke-width:1.0;"/><line style="stroke:#181818;stroke-width:1.0;" x1="863" x2="863" y1="852.2188" y2="893.7949"/><polygon fill="#181818" points="859,883.7949,863,893.7949,867,883.7949,863,887.7949" style="stroke:#181818;stroke-width:1.0;"/><text fill="#000000" font-family="Roboto" font-size="11" lengthAdjust="spacing" textLength="14" x="867" y="873.6094">no</text><line style="stroke:#181818;stroke-width:1.0;" x1="598.5" x2="463" y1="522.3438" y2="522.3438"/><line style="stroke:#181818;stroke-width:1.0;" x1="463" x2="463" y1="522.3438" y2="544.3438"/><polygon fill="#181818" points="459,534.3438,463,544.3438,467,534.3438,463,538.3438" style="stroke:#181818;stroke-width:1.0;"/><line style="stroke:#181818;stroke-width:1.0;" x1="727.5" x2="863" y1="522.3438" y2="522.3438"/><line style="stroke:#181818;stroke-width:1.0;" x1="863" x2="863" y1="522.3438" y2="544.3438"/><polygon fill="#181818" points="859,534.3438,863,544.3438,867,534.3438,863,538.3438" style="stroke:#181818;stroke-width:1.0;"/><line style="stroke:#181818;stroke-width:1.0;" x1="463" x2="463" y1="657.3516" y2="959.9199"/><line style="stroke:#181818;stroke-width:1.0;" x1="463" x2="651" y1="959.9199" y2="959.9199"/><polygon fill="#181818" points="641,955.9199,651,959.9199,641,963.9199,645,959.9199" style="stroke:#181818;stroke-width:1.0;"/><line style="stroke:#181818;stroke-width:1.0;" x1="863" x2="863" y1="941.9199" y2="959.9199"/><line style="stroke:#181818;stroke-width:1.0;" x1="863" x2="675" y1="959.9199" y2="959.9199"/><polygon fill="#181818" points="685,955.9199,675,959.9199,685,963.9199,681,959.9199" style="stroke:#181818;stroke-width:1.0;"/><line style="stroke:#181818;stroke-width:1.0;" x1="663" x2="663" y1="490.3438" y2="510.3438"/><polygon fill="#181818" points="659,500.3438,663,510.3438,667,500.3438,663,504.3438" style="stroke:#181818;stroke-width:1.0;"/><line style="stroke:#181818;stroke-width:1.0;" x1="663" x2="663" y1="971.9199" y2="991.9199"/><polygon fill="#181818" points="659,981.9199,663,991.9199,667,981.9199,663,985.9199" style="stroke:#181818;stroke-width:1.0;"/><line style="stroke:#181818;stroke-width:1.0;" x1="663" x2="663" y1="1110.3574" y2="1130.3574"/><polygon fill="#181818" points="659,1120.3574,663,1130.3574,667,1120.3574,663,1124.3574" style="stroke:#181818;stroke-width:1.0;"/><!--SRC=[bLPXJniv4FsUNp7IVIYeR0ZqxYh1gQSqWHQ90eAhgbFJ3sOzkt7nsblR2-JVtnil2KbfLKxva6IzdddptlYDNz34DwqrofLC5wPbQnnJGTUgl8caVHbtOzToQFqT1_nk6K_sH_j_5gFVY_rH4RZrHRaAKMYEfdR3HWy7BsXS9dDhqeAqKNLG3VcAqfofwgobtRnLTTeaAhqFsZYLVA3A-hi3QbLGrh85X4OPHwfcb-8EWlfR3i5e9k1g0yTelDiXun879VcORkEGOZbdtLdMT1q0R6vSlKFAQGgSWfSov5K1UQfY8iGqbM5zGAlQNY4dCcDnM5h0vDruOwoDkz-Ll9l3PdnK6SjnE1WaaopJ9Lxy4Rs30I8vgR0XzK3HrAZ6E_qMjDV1TqvFl0KPlrKidxKDSQwqlqCvL2aRrrSqLwgpwTYxTAOQfFVNFdaaIogamU3WO-G0dcxz3SSDzZ-tAis_qEUYMB7svH0R9ckgMAzqd84D5Ak2ZaMZdAaufk52DNRcrbfWAL145smiy7rfEv4hvar8uNnY2gQUfm7HqMgPh07jWZ0IwcjRrbW7mIQmNQ26DNdZ7NCBpedEbtbNdK4Atu2JTz-NtAOS7UrCs5_UqCbqE62e9pW6Wyg76xnvaAcfH0ILD_Gq-J1p1VtqCtF7vn_FfiLej3SSZlRsy1_DG8A3KVmE3MkJS3Hyu9sPQnS0zXLDE4o-iTHmKaYc3ZE6ll44IRj8S- -AvBqjvtZsJ2J_d9-VBe7ipzoKRz4SRToXowwgA80tYfm0uwsAh2yMMG4SGbSPd99lDYsU00aiBT-Oz4m85vCbWD7ClVV-HZeF2lgmsA6hzsDgSRI0mFc2cqAhEASvtle-hu-nMhUNvoK_lxewVaW_-cFchYRdbqUJyUMqLnrjF3afHdkl7wm16a7-KgIUkLCnaAiIAfLeStf9RvMkcSON9_5xRBqh5EAHpyGrEHr_d1ujaRrUFi0vWHuPW51oEGPGU5I4kLOSf7layPAcM2f7MvejroenYacUxW9wozL5J0kBSvQnR3_1QzQO_1NIawLyGFa9OSILroISEKbEN_rrt93p2QFILOdlqnFsu9SmRFl_nUqSY8VhYrqJkD16zpnSSibGBo8bd40M7yuurbGa9to9kZ1fp8f3okcYLDB6pJ4ZOM4948KFipzaPnWSVE20Ni1SekEJi-d9sJkwjZutrBXjOKm_6areFn_I0HI5HAMoLBmXqxHufZ0my2TsTGqV1LxyMIyE_cWgsbfpPMgyvh-tPOQY1HOSjuN9JuZCOcfv6DCZeTb1GvgvFCRNYEwVnzs_vCSRjD-Xn3d2wGQQfb5XGMYgs1T0lajjb-IL3Ric79DD4nRPTLToNknp5Du9Bpd2C3y_4uIW27xcK3UfmDGepSFiy0zMp9XijENynbpFnLvaFvL92-5T7GLeXy4sSrioDriP-0j0bu6U5jk26aXOzOZx6HXnTagel8oHZr3W1kT6cXhJJflOc1WF-qtJZTxWUowxX0Eq72w8Suz2uCvIysD6kflB1DXQGKKAn85-9gxKAzwul0N3LjpraHQ7sUbRwDpAPIdmjmvDahlHL6Z53JNNRZI_icMLmAV3E5YUJvMjPYNs8oVlX4xwoMaJaji-5WQTLVM3jSh4PHNaUWB6NhtiXpWi9FSeBaTHvgd5Amxnq9U053nUaIReBnGovuCH2YBzE_vmIj793K0S15SPtmx-0m00]--></g></svg>
